{"title":"33 Postcards","uid":8502165,"size":953932191,"categoryP":"video","categoryS":"movies","magnet":"?xt=urn:btih:a54bcb2dabf80a6c10c097203046ca079cabb2ba&amp;dn=33+Postcards&amp;tr=udp%3A%2F%2Ftracker.openbittorrent.com%3A80&amp;tr=udp%3A%2F%2Fopen.demonii.com%3A1337&amp;tr=udp%3A%2F%2Ftracker.coppersurfer.tk%3A6969&amp;tr=udp%3A%2F%2Fexodus.desync.com%3A6969","seeders":1,"leechers":0,"uploader":"movieZ.freak","files":4,"time":1369331563,"description":"SOURCE: DVD-R\n\n &lt;a href=&quot;\nhttp://www.imdb.com/title/tt1704161/&quot; rel=&quot;nofollow&quot; target=&quot;_NEW&quot;&gt;\nhttp://www.imdb.com/title/tt1704161/&lt;/a&gt;\n\n\n- SAMPLE: Yes\n\n- SUBTITLE: English\n\n- LANGUAGE: English\n\n\n- NOTE: Rare and BEAUTIFUL movie\n\n\nDIRECTOR: Pauline Chan\n\n\nCAST:\n--------\nGuy Pearce, Zhu Lin, Claudia Karvan, Elaine Jin, Rhys Muldoon, Lincoln Lewis, Kain O'Keeffe, Claire Scott, Clayton Watson\n\n\nPLOT:\n-------\nMei Mei (Zhu Lin) a 16 year old Chinese orphan dreams of nothing more than being part of the 'perfect' family. When her orphanage travels to Australia to par-take in The Australian Choir Festival Mei Mei takes the opportunity to find her Australian Sponsor Dean Randall (Guy Pearce). However what she finds is far from what he depicted. Initially mismatched and disconnected the two begin a journey in search of belonging, family, redemption, love and acceptance.\n\n\nGeneral\n-----------\nFormat : AVI\nFormat/Info : Audio Video Interleave\nFile size : 902 MiB\nDuration : 1h 36mn\nOverall bit rate : 1303 Kbps\nWriting application : VirtualDubMod 1.5.10.3\nWriting library : VirtualDubMod build 2550\n\nVideo\n-----------\nFormat : MPEG-4 Visual\nFormat profile : Advanced Simple@L5\nFormat settings, BVOP : 1\nFormat settings, QPel : No\nFormat settings, GMC : No warppoints\nFormat settings, Matrix : Custom\nCodec ID : XVID\nCodec ID/Hint : XviD\nDuration : 1h 36mn\nBit rate : 1166 Kbps\nWidth : 672 pixels\nHeight : 368 pixels\nDisplay aspect ratio : 1.85:1\nFrame rate : 25.000 fps\nColor space : YUV\nChroma subsampling : 4:2:0\nBit depth : 8 bits\nScan type : Progressive\nCompression mode : Lossy\nBits/(Pixel*Frame) : 0.189\nStream size : 806 MiB (89%)\nWriting library : XviD 64\n\nAudio\n---------\nFormat : AC-3\nFormat/Info : Audio Coding 3\nMode extension : CM (complete main)\nFormat settings, Endianness : Big\nCodec ID : 2000\nDuration : 1h 36mn\nBit rate mode : Constant\nBit rate : 128 Kbps\nChannel(s) : 2 channels\nChannel positions : Front: L R\nSampling rate : 48.0 KHz\nBit depth : 16 bits\nCompression mode : Lossy\nStream size : 88.5 MiB (10%)\nAlignment : Split accross interleaves\nInterleave, duration : 40 ms (1.00 video frame)\nInterleave, preload duration : 500 ms","torrent":{"xt":"urn:btih:a54bcb2dabf80a6c10c097203046ca079cabb2ba","amp;dn":"33+Postcards","amp;tr":["udp%3A%2F%2Ftracker.openbittorrent.com%3A80","udp%3A%2F%2Fopen.demonii.com%3A1337","udp%3A%2F%2Ftracker.coppersurfer.tk%3A6969","udp%3A%2F%2Fexodus.desync.com%3A6969"],"infoHash":"a54bcb2dabf80a6c10c097203046ca079cabb2ba","infoHashBuffer":{"type":"Buffer","data":[165,75,203,45,171,248,10,108,16,192,151,32,48,70,202,7,156,171,178,186]},"announce":[],"urlList":[]}}